<?xml version="1.0" encoding="UTF-8" standalone="no"?>
<svg
   width="575"
   height="575"
   preserveAspectRatio="xMidYMid"
   version="1.1"
   viewBox="0 0 575 575"
   id="svg9"
   sodipodi:docname="AT-IMDb.svg"
   inkscape:export-filename="AT_IMDb_128.png"
   inkscape:export-xdpi="21.370436"
   inkscape:export-ydpi="21.370436"
   xml:space="preserve"
   inkscape:version="1.2.1 (9c6d41e410, 2022-07-14)"
   xmlns:inkscape="http://www.inkscape.org/namespaces/inkscape"
   xmlns:sodipodi="http://sodipodi.sourceforge.net/DTD/sodipodi-0.dtd"
   xmlns="http://www.w3.org/2000/svg"
   xmlns:svg="http://www.w3.org/2000/svg"><defs
     id="defs13"><filter
       style="color-interpolation-filters:sRGB;"
       inkscape:label="Drop Shadow"
       id="filter2153"
       x="-0.024115086"
       y="-0.036685773"
       width="1.0515795"
       height="1.1090383"><feFlood
         flood-opacity="0.54902"
         flood-color="rgb(0,0,0)"
         result="flood"
         id="feFlood2143" /><feComposite
         in="flood"
         in2="SourceGraphic"
         operator="in"
         result="composite1"
         id="feComposite2145" /><feGaussianBlur
         in="composite1"
         stdDeviation="3"
         result="blur"
         id="feGaussianBlur2147" /><feOffset
         dx="1"
         dy="7"
         result="offset"
         id="feOffset2149" /><feComposite
         in="SourceGraphic"
         in2="offset"
         operator="over"
         result="composite2"
         id="feComposite2151" /></filter></defs><sodipodi:namedview
     id="namedview11"
     pagecolor="#ffffff"
     bordercolor="#999999"
     borderopacity="1"
     inkscape:showpageshadow="0"
     inkscape:pageopacity="0"
     inkscape:pagecheckerboard="0"
     inkscape:deskcolor="#d1d1d1"
     showgrid="false"
     inkscape:zoom="0.70782609"
     inkscape:cx="74.170762"
     inkscape:cy="239.4656"
     inkscape:window-width="1920"
     inkscape:window-height="1001"
     inkscape:window-x="1699"
     inkscape:window-y="-9"
     inkscape:window-maximized="1"
     inkscape:current-layer="svg9"
     showguides="true"><sodipodi:guide
       position="375.80485,326.89262"
       orientation="0,-1"
       id="guide1642"
       inkscape:locked="false" /><sodipodi:guide
       position="257.73782,415.91183"
       orientation="0,-1"
       id="guide1646"
       inkscape:locked="false" /><sodipodi:guide
       position="208.56112,397.51996"
       orientation="0,-1"
       id="guide1648"
       inkscape:locked="false" /><sodipodi:guide
       position="336.4714,487.52937"
       orientation="0.93969262,-0.34202014"
       id="guide1650"
       inkscape:locked="false"
       inkscape:label=""
       inkscape:color="rgb(0,134,229)" /><sodipodi:guide
       position="401.40567,440.67869"
       orientation="0.93969262,-0.34202014"
       id="guide1674"
       inkscape:label=""
       inkscape:locked="false"
       inkscape:color="rgb(0,134,229)" /><sodipodi:guide
       position="175.32165,415.91183"
       orientation="0.93969262,-0.34202014"
       id="guide1676"
       inkscape:label=""
       inkscape:locked="false"
       inkscape:color="rgb(0,134,229)" /><sodipodi:guide
       position="452.53965,369.45909"
       orientation="0.93969262,-0.34202014"
       id="guide1678"
       inkscape:label=""
       inkscape:locked="false"
       inkscape:color="rgb(0,134,229)" /><sodipodi:guide
       position="306.53078,504.71437"
       orientation="0,-1"
       id="guide1680"
       inkscape:locked="false" /><sodipodi:guide
       position="433.54575,308.33845"
       orientation="0,-1"
       id="guide1682"
       inkscape:locked="false" /><sodipodi:guide
       position="244.39233,383.30296"
       orientation="0.93969262,-0.34202014"
       id="guide1745"
       inkscape:label=""
       inkscape:locked="false"
       inkscape:color="rgb(0,134,229)" /></sodipodi:namedview><rect
     style="fill:#565049;stroke-width:0.377953;stroke-miterlimit:0;fill-opacity:1"
     id="rect914"
     width="575"
     height="575"
     x="0"
     y="0" /><path
     style="fill:#fe9000;fill-opacity:1;stroke-width:0.266981;stroke-miterlimit:0;filter:url(#filter2153)"
     d="m 139.25926,258.16877 29.3683,-80.68873 c 4.78938,-13.15871 12.46825,-18.39187 26.84747,-18.60803 l 114.92972,0.21616 26.06665,-71.61754 H 201.3883 l 6.21314,-17.07045 199.65699,0.188414 c 4.63911,0.06567 6.65087,2.035944 8.7301,4.113142 3.03656,3.253631 3.07434,8.892579 1.48689,12.768894 l -57.48449,160.63675 h 77.05579 l -6.75316,18.55417 H 140.6998 c -3.15993,-0.4661 -2.26444,-6.30957 -1.44054,-8.49278 z m 138.74514,-10.06139 25.70625,-70.62734 -54.14376,0 -25.70624,70.62734 z"
     id="path1544"
     sodipodi:nodetypes="cccccccccccccccccccc" /><g
     id="g-bg"
     transform="matrix(1,0,0,0.7944659,0,292.73369)"><path
       id="bg"
       d="M 575,24.91 C 573.44,12.15 563.97,1.98 551.91,0 H 23.32 C 10.11,2.17 0,14.16 0,28.61 v 232.25 c 0,16 12.37,28.97 27.64,28.97 h 519.95 c 14.06,0 25.67,-11.01 27.41,-25.26 z"
       fill="#f6c700" /></g><g
     id="g-letters"
     transform="translate(-2.2,262.94872)"><path
       id="letter-i"
       d="m 69.35,58.24 h 45.63 V 233.89 H 69.35 Z" /><path
       id="letter-m"
       d="M 201.2,139.15 C 197.28,112.38 195.1,97.5 194.67,94.53 192.76,80.2 190.94,67.73 189.2,57.09 h -59.16 v 175.65 h 39.97 l 0.14,-115.98 16.82,115.98 h 28.47 l 15.95,-118.56 0.15,118.56 h 39.84 V 57.09 h -59.61 z" /><path
       id="letter-d"
       d="m 346.71,93.63 c 0.5,2.24 0.76,7.32 0.76,15.26 v 68.1 c 0,11.69 -0.76,18.85 -2.27,21.49 -1.52,2.64 -5.56,3.95 -12.11,3.95 V 87.13 c 4.97,0 8.36,0.53 10.16,1.57 1.8,1.05 2.96,2.69 3.46,4.93 z m 20.61,137.32 c 5.43,-1.19 9.99,-3.29 13.69,-6.28 3.69,-3 6.28,-7.15 7.76,-12.46 1.49,-5.3 2.37,-15.83 2.37,-31.58 v -61.68 c 0,-16.62 -0.65,-27.76 -1.66,-33.42 -1.02,-5.67 -3.55,-10.82 -7.6,-15.44 -4.06,-4.62 -9.98,-7.94 -17.76,-9.96 -7.79,-2.02 -20.49,-3.04 -42.58,-3.04 H 287.5 v 175.65 h 55.28 c 12.74,-0.4 20.92,-0.99 24.54,-1.79 z" /><path
       id="letter-b"
       d="m 464.76,204.7 c -0.84,2.23 -4.52,3.36 -7.3,3.36 -2.72,0 -4.53,-1.08 -5.45,-3.25 -0.92,-2.16 -1.37,-7.09 -1.37,-14.81 v -46.42 c 0,-8 0.4,-12.99 1.21,-14.98 0.8,-1.97 2.56,-2.97 5.28,-2.97 2.78,0 6.51,1.13 7.47,3.4 0.95,2.27 1.43,7.12 1.43,14.55 v 45.01 c -0.29,9.25 -0.71,14.62 -1.27,16.11 z m -58.08,26.51 h 41.08 c 1.71,-6.71 2.65,-10.44 2.84,-11.19 3.72,4.5 7.81,7.88 12.3,10.12 4.47,2.25 11.16,3.37 16.34,3.37 7.21,0 13.43,-1.89 18.68,-5.68 5.24,-3.78 8.58,-8.26 10,-13.41 1.42,-5.16 2.13,-13 2.13,-23.54 V 141.6 c 0,-10.6 -0.24,-17.52 -0.71,-20.77 -0.47,-3.25 -1.87,-6.56 -4.2,-9.95 -2.33,-3.39 -5.72,-6.02 -10.16,-7.9 -4.44,-1.88 -9.68,-2.82 -15.72,-2.82 -5.25,0 -11.97,1.05 -16.45,3.12 -4.47,2.07 -8.53,5.21 -12.17,9.42 V 55.56 h -43.96 z" /></g></svg>
